<?xml version="1.0" encoding="UTF-8"?>
<svg width="75px" height="75px" viewBox="0 0 75 75" version="1.1" xmlns="http://www.w3.org/2000/svg" xmlns:xlink="http://www.w3.org/1999/xlink">
    <!-- Generator: Sketch 47.1 (45422) - http://www.bohemiancoding.com/sketch -->
    <title>appicoxhdpi</title>
    <desc>Created with Sketch.</desc>
    <defs>
        <radialGradient cx="50%" cy="50%" fx="50%" fy="50%" r="50%" id="radialGradient-1">
            <stop stop-color="#6FA9DC" offset="0%"></stop>
            <stop stop-color="#6196D5" offset="100%"></stop>
        </radialGradient>
    </defs>
    <g id="Page-1" stroke="none" stroke-width="1" fill="none" fill-rule="evenodd">
        <g id="Desktop-HD" transform="translate(-189.000000, -215.000000)" fill-rule="nonzero">
            <g id="appicoxhdpi" transform="translate(189.000000, 215.000000)">
                <rect id="Rectangle-path" fill="url(#radialGradient-1)" x="0" y="0" width="75" height="75" rx="18.27"></rect>
                <path d="M39.374564,17.7118569 C40.1680702,17.7141159 40.9608293,17.7607488 41.7491279,17.8515371 L39.9507449,8.48423153 C39.9018271,8.20427879 39.6587584,8 39.374564,8 C39.0903695,8 38.8473008,8.20427879 38.798383,8.48423153 L37,17.8340771 C37.7886456,17.7493748 38.5813896,17.7085718 39.374564,17.7118569 Z" id="Shape" fill="#E1251B"></path>
                <circle id="Oval" fill="#FFFFFF" cx="40.0380451" cy="39.0380451" r="3.03804506"></circle>
                <path d="M54.0333293,23.0022983 L47.2937581,30.8593114 C46.8613637,31.3811888 46.0992107,31.4802687 45.5477552,31.0862918 L45.0152243,30.7632812 L42.5708202,18.0436501 C42.5708202,18.0436501 42.5708202,18.0436501 42.5708202,18.0436501 C46.8035026,18.5057308 50.7983563,20.2338929 54.0333293,23.0022983 L54.0333293,23.0022983 Z M44.9541142,47.9264898 L42.5795502,60.1485102 L42.5795502,60.1485102 C46.8101431,59.6822403 50.801822,57.951093 54.0333293,55.1811319 L47.1628079,47.1407885 C46.8264456,46.7519756 46.2521186,46.6769001 45.8271156,46.9661882 L45.460455,47.2106286 C45.1967226,47.3654831 45.0122857,47.6262387 44.9541142,47.9264898 L44.9541142,47.9264898 Z M35.4995084,47.8391897 C35.4448007,47.5885671 35.2903358,47.3710553 35.0717377,47.2368187 C32.2875893,45.4965568 30.5855135,42.4544905 30.5589792,39.1713077 C30.5324448,35.8881248 32.1851301,32.8189457 34.9407875,31.0339117 C35.2261004,30.8501625 35.4221695,30.5560589 35.4820484,30.2220203 L37.8216923,18 C27.1000223,19.2168178 19,28.2881218 19,39.0786201 C19,49.8691184 27.1000223,58.9404224 37.8216923,60.1572402 L37.8216923,60.1572402 L35.4995084,47.8391897 Z" id="Shape" fill="#FFFFFF"></path>
            </g>
        </g>
    </g>
</svg>