<?xml version="1.0" encoding="UTF-8"?>
<svg width="203px" height="62px" viewBox="0 0 203 62" version="1.1" xmlns="http://www.w3.org/2000/svg" xmlns:xlink="http://www.w3.org/1999/xlink">
    <!-- Generator: Sketch 47.1 (45422) - http://www.bohemiancoding.com/sketch -->
    <title>header_logo</title>
    <desc>Created with Sketch.</desc>
    <defs></defs>
    <g id="Page-1" stroke="none" stroke-width="1" fill="none" fill-rule="evenodd">
        <g id="Desktop-HD" transform="translate(-123.000000, -17.000000)" fill-rule="nonzero">
            <g id="header_logo" transform="translate(123.000000, 17.000000)">
                <path d="M24.5033025,11.8313979 C25.3376023,11.8331994 26.1711532,11.8894892 27,12 L25.1043593,0.565711237 C25.0444543,0.235989889 24.7937198,2.44618e-16 24.5033025,0 C24.2128853,-2.44618e-16 23.9621507,0.235989889 23.9022457,0.565711237 L22,12 C22.831036,11.8892017 23.6667991,11.8329115 24.5033025,11.8313979 L24.5033025,11.8313979 Z" id="Shape" fill="#E1251B"></path>
                <path d="M28,12 L30.7947117,26.7156772 C30.8645819,27.0468721 31.0626137,27.3361146 31.3447347,27.519033 L31.7386701,27.781813 C32.2597058,28.1438233 32.9678179,28.0462849 33.3738738,27.556573 L40.6951264,18.9298827 C40.9195573,18.6705287 41.0277154,18.3289131 40.9939224,17.9861397 C40.9601294,17.6433663 40.7873994,17.3300062 40.5167406,17.120455 C36.8874387,14.2879889 32.5577363,12.5167573 28,12 Z" id="Shape" fill="#FFFFFF"></path>
                <path d="M30.7930044,47.2872337 L28,62 L28,62 C32.5582063,61.4870643 36.8886826,59.7149315 40.5165225,56.8779445 C40.7874436,56.6669352 40.9601892,56.3522056 40.9939396,56.0081256 C41.02769,55.6640456 40.919451,55.3211415 40.6947994,55.060441 L33.3780192,46.4385646 C32.9686893,45.9551896 32.2662066,45.8583373 31.7438144,46.2132543 C31.6101068,46.3133922 31.4763991,46.4035164 31.3426915,46.4836267 C31.0607428,46.6666023 30.8628319,46.9559352 30.7930044,47.2872337 L30.7930044,47.2872337 Z" id="Shape" fill="#FFFFFF"></path>
                <path d="M19.2558958,47.435592 C19.2005472,47.1054622 19.0116573,46.8138745 18.7349562,46.6314222 C15.4928719,44.5338752 13.530179,40.9019187 13.530179,37 C13.530179,33.0980813 15.4928719,29.4661248 18.7349562,27.3685778 C19.0112986,27.1843938 19.2019876,26.8941173 19.263233,26.564408 L22,12 C9.46827355,13.4415385 1.54263036e-15,24.2009403 0,37 C-1.54517596e-15,49.7990597 9.46827355,60.5584615 22,62 L19.2558958,47.435592 Z" id="Shape" fill="#FFFFFF"></path>
                <circle id="Oval" fill="#FFFFFF" cx="24.5" cy="36.5" r="3.5"></circle>
                <path d="M93,37.5808538 C93,44.8693402 88.1628125,50 81.5,50 C74.8371875,50 70,44.8693402 70,37.5808538 C70,30.7736093 75.5271875,26 81.5,26 C87.4728125,26 93,30.7736093 93,37.5808538 Z M75.5775,37.5808538 C75.4449713,39.9452427 76.5377455,42.1939204 78.4148058,43.4193761 C80.2918661,44.6448318 82.6434464,44.6448318 84.5205067,43.4193761 C86.397567,42.1939204 87.4903412,39.9452427 87.3578125,37.5808538 C87.3578125,34.4760673 84.705625,31.6429495 81.47125,31.6429495 C78.236875,31.6429495 75.5775,34.5071151 75.5775,37.6119017 L75.5775,37.5808538 Z" id="Shape" fill="#FFFFFF"></path>
                <path d="M101.127388,28 L105.617331,28 C105.90942,28.0087716 106.16951,28.1812739 106.283339,28.4417238 L110.511369,39.2241292 L115.001312,28.4344824 C115.116227,28.1791737 115.372256,28.0102508 115.659837,28 L120.396727,28 C120.623549,28.0006666 120.816621,28.1599332 120.853204,28.3765514 L123.996164,48.4858462 C124.01316,48.6140304 123.973176,48.7431758 123.886145,48.8412008 C123.799113,48.9392259 123.673201,48.9969318 123.539687,48.9999837 L119.049744,48.9999837 C118.691253,49.0023662 118.388263,48.7434791 118.346319,48.3989497 L116.782323,36.914131 L111.76107,48.579984 C111.641802,48.8296427 111.386667,48.9923645 111.102545,48.9999837 L109.815428,48.9999837 C109.525107,48.9924883 109.265486,48.82312 109.14942,48.5655013 L104.352664,36.914131 L102.571653,48.4134324 C102.50604,48.7431021 102.214865,48.9858985 101.868229,48.9999837 L97.7075484,48.9999837 C97.4980017,49.0011708 97.2988184,48.9118914 97.1642411,48.7564583 C97.0296637,48.6010252 96.9737062,48.3956243 97.0116072,48.1961912 L100.453897,28.5720685 C100.507582,28.2497669 100.790173,28.0097321 101.127388,28 Z" id="Shape" fill="#FFFFFF"></path>
                <path d="M129.021779,28.4489647 C129.019838,28.3305628 129.065508,28.2163394 129.148541,28.1319274 C129.231573,28.0475154 129.345014,27.9999841 129.463406,28 L137.369259,28 C141.886889,28 145,30.0855134 145,34.908263 C145,39.8613573 142.328517,42.0410084 137.564733,42.0410084 L134.55298,42.0410084 C134.532559,42.0389553 134.512226,42.0456682 134.497039,42.0594772 C134.481852,42.0732863 134.473239,42.0928937 134.473342,42.1134221 L134.473342,48.3120313 C134.4753,48.4950748 134.403466,48.6711922 134.274056,48.8006309 C134.144645,48.9300696 133.968566,49.0019189 133.785562,48.999961 L129.441687,48.999961 C129.323295,48.9999769 129.209854,48.9524456 129.126821,48.8680336 C129.043789,48.7836216 128.998119,48.6693982 129.000059,48.5509963 L129.021779,28.4489647 Z M134.473342,37.638258 L135.392796,37.638258 C137.369259,37.638258 139.324003,37.638258 139.324003,35.0748145 C139.324003,32.5113709 137.514055,32.4027504 135.392796,32.4027504 L134.473342,32.4027504 L134.473342,37.638258 Z" id="Shape" fill="#FFFFFF"></path>
                <path d="M152.100732,45.408278 L150.836732,48.565513 C150.731425,48.8283171 150.469704,49.0010868 150.178555,48.9999949 L145.690984,48.9999949 C145.46447,48.9832476 145.258095,48.8677334 145.130075,48.6860372 C145.002055,48.504341 144.966267,48.2761592 145.032807,48.0658588 L152.826222,28.4417606 C152.939991,28.181311 153.199944,28.0088089 153.491879,28.0000374 L158.667544,28.0000374 C158.963311,27.9970486 159.229378,28.1736087 159.333201,28.4417606 L166.969551,48.0731002 C167.033554,48.2835951 166.995524,48.5108345 166.866143,48.6909916 C166.736762,48.8711487 166.529986,48.9847896 166.303895,48.9999949 L161.816324,48.9999949 C161.5226,48.9899667 161.262169,48.8143138 161.150667,48.5510302 L159.939023,45.408278 C159.923926,45.3731978 159.888524,45.3503471 159.849272,45.3503471 L152.190483,45.3503471 C152.151231,45.3503471 152.115829,45.3731978 152.100732,45.408278 L152.100732,45.408278 Z M155.57112,35.7410562 L153.678861,41.1720797 L158.368373,41.1720797 L156.453676,35.7410562 C156.391847,35.55568 156.2136,35.4300581 156.012398,35.4300581 C155.811196,35.4300581 155.63295,35.55568 155.57112,35.7410562 L155.57112,35.7410562 Z" id="Shape" fill="#FFFFFF"></path>
                <path d="M182.213937,32.2146647 C182.111488,32.3809024 181.943291,32.5011512 181.746952,32.5485253 C181.550613,32.5958994 181.342507,32.5664476 181.169163,32.4667548 C180.241784,31.8797936 179.156165,31.5596964 178.042413,31.5448252 C176.990069,31.5448252 175.597037,32.1282338 175.597037,33.2878484 C175.597037,34.4474631 177.111202,34.9804537 178.125692,35.2829619 L179.586861,35.7007112 C182.615191,36.5578177 185,38.0271431 185,41.405151 C185,43.4866954 184.477613,45.6186577 182.728753,47.0303625 C180.957374,48.3587302 178.752671,49.0544875 176.497965,48.9966656 C173.953396,48.9771015 171.467026,48.2702195 169.328396,46.9583368 C169.014002,46.7671008 168.908267,46.3773083 169.086129,46.0652174 L170.812277,42.9753125 C170.920985,42.8068495 171.097692,42.6882958 171.300986,42.6474354 C171.504281,42.606575 171.716292,42.6469995 171.887334,42.7592352 C173.123397,43.7563365 174.674288,44.3318149 176.293553,44.3942199 C177.633589,44.3942199 179.056904,43.7603932 179.056904,42.2910678 C179.056904,40.8217424 176.785657,40.2455364 175.597037,39.9070153 C172.016038,38.9418702 169.653941,38.0559534 169.653941,34.008106 C169.653941,29.7729916 172.826116,27 177.224764,27 C179.374392,27.038796 181.490688,27.512672 183.43284,28.3900971 C183.785749,28.5662289 183.934712,28.9724848 183.773527,29.3192293 L182.213937,32.2146647 Z" id="Shape" fill="#FFFFFF"></path>
                <path d="M200.204401,32.214636 C200.111586,32.38861 199.944348,32.5160702 199.745542,32.5643552 C199.546737,32.6126403 199.335685,32.5770574 199.166469,32.4667247 C198.235168,31.8806702 197.146661,31.5607233 196.029944,31.5448001 C194.984435,31.5448001 193.582848,32.1282055 193.582848,33.2878138 C193.582848,34.4474221 195.098077,34.9804097 196.120857,35.2829162 L197.575478,35.7006633 C200.605937,36.5577651 203,38.0270824 203,41.4050717 C203,43.4866045 202.46967,45.6185552 200.727155,47.0302522 C198.952205,48.3596699 196.743186,49.0554499 194.484409,48.9965445 C191.93805,48.9769804 189.449931,48.2701023 187.309797,46.9582268 C187.015484,46.7531417 186.916765,46.3777399 187.074936,46.0651124 L188.802298,42.9752245 C188.901008,42.7981526 189.077162,42.6717525 189.283344,42.6300474 C189.489526,42.5883422 189.704549,42.6356176 189.870535,42.7591484 C191.110992,43.7553361 192.664999,44.3305734 194.287429,44.3941241 C195.620832,44.3941241 197.052724,43.7603009 197.052724,42.2909836 C197.052724,40.8216663 194.779879,40.2454634 193.582848,39.9069442 C189.999329,38.9418044 187.643147,38.0558925 187.643147,34.0080674 C187.643147,29.7729763 190.817553,27 195.219296,27 C197.368104,27.0380528 199.483581,27.5119876 201.424161,28.3900894 C201.602842,28.4662787 201.740636,28.6090555 201.805137,28.7848397 C201.869638,28.9606239 201.855153,29.153902 201.765088,29.3192165 L200.204401,32.214636 Z" id="Shape" fill="#FFFFFF"></path>
                <path d="M65.6021794,42.1784068 C65.42164,41.9619564 65.1034153,41.9208627 64.8731639,42.084266 L64.7711018,42.1494404 C63.9429925,42.6869207 62.9754719,42.9737344 61.9862628,42.9749835 C60.5046308,42.9715378 59.1005747,42.3166093 58.1516415,41.1863068 C58.1346369,41.1580761 58.1151184,41.1314168 58.0933203,41.1066491 C58.004379,41.0029136 57.9216162,40.8941041 57.845455,40.7807768 C57.82605,40.7583937 57.8089541,40.7341336 57.794424,40.7083608 C57.5572164,40.3445008 57.3662227,39.9528955 57.2257919,39.5424621 C57.2299511,39.5039507 57.2299511,39.4651079 57.2257919,39.4265964 C57.1873418,39.3004295 57.1557061,39.1723118 57.1310199,39.0427913 C57.1310199,38.9921001 57.1310199,38.9414088 57.1310199,38.8907176 C57.1310199,38.8400263 57.087279,38.6300197 57.0726987,38.4996708 C57.0762828,38.4708138 57.0762828,38.4416286 57.0726987,38.4127716 C57.0726987,38.2679394 57.0726987,38.1231073 57.0726987,37.9782752 C57.0726987,37.8334431 57.0726987,37.6886109 57.0726987,37.5437788 C57.0762828,37.5149218 57.0762828,37.4857366 57.0726987,37.4568795 C57.0726987,37.3265306 57.0726987,37.1961817 57.1310199,37.0658328 C57.1893411,36.9354839 57.1310199,36.9572087 57.1310199,36.9065174 C57.1557441,36.7817714 57.1873829,36.6584765 57.2257919,36.5371955 L57.2695328,36.4068466 C57.4052133,36.003897 57.591357,35.6194913 57.8235846,35.2626728 L57.8819058,35.1685319 C57.9556679,35.0599866 58.0360079,34.9559983 58.1224809,34.8571429 C58.1451956,34.8225938 58.1721313,34.7909727 58.2026726,34.763002 C59.1507604,33.6433231 60.5498262,32.9988403 62.0227135,33.0032916 C63.0246003,33.0018811 64.0042207,33.2968353 64.8367131,33.8505596 L64.9096147,33.8940092 C65.1398661,34.0574125 65.4580908,34.0163188 65.6386301,33.7998683 L68.8681685,30.0631995 C68.9657393,29.9491307 69.0123283,29.8005057 68.9971981,29.6515779 C68.9820679,29.5026501 68.906524,29.3662683 68.7879768,29.2738644 C67.1801769,28.0537606 65.2664078,27.2948536 63.2547496,27.0796577 L63.2547496,27.0796577 C62.8412786,27.0274234 62.4249339,27.0008193 62.0081332,27 C61.5940161,27.0020467 61.1803097,27.0262204 60.768807,27.0724161 L60.768807,27.0724161 C59.0009031,27.2674467 57.3071764,27.8862494 55.8333724,28.875576 L55.7604709,28.9262673 C55.4980253,29.1073074 55.2428699,29.2955892 55.0314554,29.4911126 L54.9221031,29.5852535 C54.6907764,29.7716579 54.4693439,29.9698617 54.2586991,30.1790652 L54.1347664,30.3094141 C53.9306421,30.5121791 53.7410981,30.7221856 53.5588442,30.9394338 L53.4349116,31.0915076 C53.2526578,31.3087558 53.0849842,31.5332456 52.9246008,31.764977 L52.8079583,31.9315339 C52.6548651,32.1632653 52.5017718,32.4094799 52.3632589,32.6556945 C52.3632589,32.7063858 52.2976475,32.757077 52.2684869,32.8150099 C52.129974,33.0757077 52.0060413,33.3364055 51.8821087,33.6115866 C51.8632906,33.6611719 51.8413776,33.7095432 51.8164973,33.7564187 C51.6998549,34.0460829 51.5905025,34.3429888 51.4957305,34.6398947 C51.4926183,34.6760367 51.4926183,34.7123767 51.4957305,34.7485188 C51.3936684,35.0816327 51.2988964,35.4219882 51.2259948,35.7695853 L51.2259948,35.7695853 C51.0765076,36.4989019 51.0007995,37.2412374 51,37.9855168 C50.9999149,39.0855512 51.1670422,40.1792928 51.4957305,41.2297564 C51.4957305,41.2297564 51.4957305,41.2876893 51.4957305,41.3166557 C51.5977927,41.6208032 51.707145,41.9249506 51.8310776,42.2146149 C51.8474572,42.2593531 51.8669445,42.3029075 51.8893989,42.3449638 C52.0058203,42.6245168 52.1372313,42.8976752 52.2830672,43.1632653 C52.2906937,43.2291923 52.3028727,43.2945207 52.319518,43.3587887 C52.4653211,43.6122449 52.6184143,43.8657011 52.7787977,44.0829493 C52.8086,44.1340284 52.8427452,44.1824823 52.8808599,44.2277814 C53.0412433,44.4667544 53.216207,44.6984858 53.405751,44.9519421 C53.405751,44.9953917 53.4713624,45.0388413 53.5151033,45.082291 C53.7046473,45.3091946 53.9014815,45.5264428 54.1056058,45.7340355 L54.2149581,45.8426596 C54.4336628,46.0526662 54.6596576,46.2626728 54.9002327,46.4581962 L54.9877145,46.5306122 C55.2428699,46.7333772 55.4980253,46.9289006 55.7750512,47.1171824 L55.8187921,47.1171824 C57.2932411,48.1064964 58.9863574,48.7275604 60.7542267,48.9275839 L60.7542267,48.9275839 C61.1632706,48.9739997 61.5745626,48.9981744 61.9862628,49 C62.4106067,48.9886537 62.8340383,48.9548114 63.2547496,48.8986175 L63.2547496,48.8986175 C65.2635121,48.6744966 67.1721087,47.9081277 68.7733965,46.682686 C68.8919437,46.590282 68.9674876,46.4539002 68.9826178,46.3049725 C68.9977479,46.1560447 68.951159,46.0074197 68.8535882,45.8933509 L65.6021794,42.1784068 Z" id="Shape" fill="#FFFFFF"></path>
            </g>
        </g>
    </g>
</svg>